# xmcd
#
# Track frame offsets:
#	150
#	13833
#	32537
#	48899
#	66875
#	86968
#	105853
#	123425
#	137088
#	159582
#	182396
#	198494
#	212035
#	231225
#	253511
#
# Disc length: 4126 seconds
#
# Revision: 0
# Processed by: cddbd v1.5.2PL0 Copyright (c) Steve Scherf et al.
# Submitted via: audiograbber 1.83.01
#
DISCID=c7101c0f
DTITLE=Александр Звинцов - 2006-Чёрный Ворон
DYEAR=2006
DGENRE=Chanson
TTITLE0=Я Освободился
TTITLE1=Электричка
TTITLE2=Тебя Искал
TTITLE3=Атаман
TTITLE4=Вот И Прощай
TTITLE5=Юность
TTITLE6=Вечерком Поздним
TTITLE7=В Самаре У Друзей
TTITLE8=Чёрный Ворон
TTITLE9=Памяти Сергея Наговицына
TTITLE10=Вороной
TTITLE11=Питер
TTITLE12=Я Вернусь
TTITLE13=Косяк По Кругу
TTITLE14=клип
EXTD=
EXTT0=
EXTT1=
EXTT2=
EXTT3=
EXTT4=
EXTT5=
EXTT6=
EXTT7=
EXTT8=
EXTT9=
EXTT10=
EXTT11=
EXTT12=
EXTT13=
EXTT14=
PLAYORDER=
